<svg width="832" height="95" viewBox="0 0 832 95" fill="none"
	xmlns="http://www.w3.org/2000/svg">
	<g clip-path="url(#clip0_9683_2052)">
		<path d="M229.159 73.89L178.259 93.43C173.549 95.24 168.259 92.89 166.449 88.17L147.419 38.6C145.609 33.89 147.959 28.6 152.679 26.79L210.609 4.55001C211.439 4.23001 212.369 4.65001 212.689 5.48001L234.419 62.08C236.229 66.79 233.879 72.08 229.159 73.89Z" fill="#4CBB17"/>
		<path d="M149.009 70.1401C149.009 70.1401 159.849 48.7601 185.589 44.0201C217.099 38.2101 195.369 78.8501 195.369 78.8501L195.109 78.7801C195.109 78.7801 208.409 53.5601 187.759 54.3801C167.109 55.2101 148.999 70.1401 148.999 70.1401" fill="white"/>
		<path d="M200.049 26.2001C200.049 29.1501 197.639 31.5501 194.669 31.5501C191.699 31.5501 189.279 29.1601 189.279 26.2001C189.279 23.2401 191.689 20.8501 194.669 20.8501C197.649 20.8501 200.049 23.2401 200.049 26.2001Z" fill="white"/>
		<path d="M219.919 24.2001C219.919 24.2001 211.979 39.8601 193.109 43.3401C170.019 47.5901 185.939 17.8201 185.939 17.8201L186.019 17.8701C186.019 17.8701 179.149 36.3501 191.509 35.7501C206.629 35.0101 219.909 24.2101 219.909 24.2101" fill="white"/>
		<path d="M155.75 73.89L104.85 93.43C100.14 95.24 94.8499 92.89 93.0399 88.17L74.0099 38.6C72.1999 33.89 74.5499 28.6 79.2699 26.79L137.2 4.55001C138.03 4.23001 138.96 4.65001 139.28 5.48001L161.01 62.08C162.82 66.79 160.47 72.08 155.75 73.89Z" fill="#FF900D"/>
		<path d="M141.979 43.3201C138.739 27.0101 125.489 30.8001 120.779 31.9601L120.369 32.0001C122.369 31.0601 125.179 29.2101 126.709 25.8501C129.249 20.2701 127.379 15.3601 127.379 15.3601C127.379 15.3601 117.329 18.9201 117.779 30.0901C117.449 29.1301 117.039 28.0801 116.509 26.9901C114.629 23.1001 112.119 21.2401 112.119 21.2401L109.989 22.4701C109.989 22.4701 113.629 24.2301 115.259 28.4901C115.929 30.2401 116.24 31.4101 116.369 32.2001L115.379 32.1601L113.329 31.9701C108.619 30.8101 95.3695 27.0201 92.1295 43.3301C88.8895 59.6401 103.25 78.8601 108.91 78.8601C114.569 78.8601 114.789 77.6301 117.059 77.2901C119.329 77.6301 119.559 78.8601 125.209 78.8601C130.859 78.8601 145.23 59.6401 141.99 43.3301M122.369 47.0301C122.369 45.2701 123.759 44.0301 125.559 44.0301C127.459 44.0301 128.85 45.3201 128.85 47.1301C128.85 48.9401 127.459 50.1301 125.559 50.1801C123.759 50.1801 122.369 48.9901 122.369 47.0801V47.0301ZM104.219 47.0301C104.219 45.2701 105.609 44.0301 107.41 44.0301C109.309 44.0301 110.649 45.3201 110.649 47.1301C110.649 48.9401 109.309 50.1301 107.41 50.1801C105.609 50.1801 104.219 48.9901 104.219 47.0801V47.0301ZM132.189 57.0101C129.049 60.9101 124.149 65.0001 116.599 65.0001C109.049 65.0001 104.229 60.9101 100.969 57.0101V52.8601C104.759 57.1901 109.739 60.5401 116.629 60.5401C123.519 60.5401 128.379 57.2501 132.179 52.8601V57.0101H132.189Z" fill="white"/>
		<path d="M82.3395 73.89L31.4395 93.43C26.7295 95.24 21.4395 92.89 19.6295 88.17L0.609526 38.6C-1.20047 33.89 1.14953 28.6 5.86953 26.79L63.7995 4.56002C64.6295 4.24002 65.5595 4.66002 65.8795 5.49002L87.6095 62.09C89.4195 66.8 87.0695 72.09 82.3495 73.9L82.3395 73.89Z" fill="#1273E2"/>
		<path d="M71.8598 64.0801C71.8598 66.7201 69.7198 68.8601 67.0798 68.8601C64.4398 68.8601 62.2998 66.7201 62.2998 64.0801C62.2998 61.4401 64.4398 59.3101 67.0798 59.3101C69.7198 59.3101 71.8598 61.4501 71.8598 64.0801Z" fill="white"/>
		<path d="M68.8898 67.28L68.6598 66.36L68.1198 66.87C68.1198 66.87 68.0898 66.87 68.0698 66.86C67.9298 66.82 67.7798 66.78 67.6198 66.78C67.5498 66.78 67.4798 66.78 67.4198 66.8C67.1498 66.8 66.4598 66.65 66.2898 66.59L64.8098 66.09L65.6398 67.41C67.7598 68.54 66.5798 71.13 66.3598 71.52C65.2598 73.46 62.3798 74.09 60.5798 73.85C54.6598 73.08 53.0898 72.62 49.7398 70.57C45.4998 67.98 42.8098 64.83 42.4698 61.39C51.4798 54.99 53.4398 52 55.0198 42.58C55.9198 37.2 54.7598 31.69 53.1798 27.58C51.5598 23.37 48.4898 20.92 45.2398 20.38C44.8798 20.32 44.4998 20.29 44.0998 20.29C42.3398 20.29 40.3498 20.85 38.7298 21.79C38.5998 21.77 38.4698 21.76 38.3398 21.76C37.7798 21.76 37.2398 21.94 36.7598 22.27C35.7398 23 35.3398 24.28 35.8098 25.32C35.8698 25.44 35.9298 25.57 36.0098 25.68C36.1998 25.95 36.4498 26.16 36.7498 26.33C37.0898 26.51 37.4698 26.6 37.8798 26.6C38.4398 26.6 38.9898 26.42 39.4698 26.08C39.8598 25.8 40.1698 25.42 40.3698 24.97C41.5598 23.91 42.7398 23.69 43.5298 23.69C43.7398 23.69 43.9498 23.71 44.1398 23.74C46.6598 24.16 48.6998 26.41 49.8698 30.08C51.0498 33.78 51.2498 38.51 50.4398 43.4C49.1798 50.97 45.3798 57.25 40.9598 59.06C40.8998 59.06 40.8398 59.06 40.7798 59.06C36.0598 59.06 30.2098 55.25 25.8698 49.34C19.7798 41.04 18.3498 32.08 22.6098 28.96C23.0098 28.67 23.8698 28.18 25.1498 28.18C25.5998 28.18 26.0598 28.24 26.5198 28.36C26.8998 28.67 27.3498 28.87 27.8298 28.94C27.9798 28.96 28.1198 28.97 28.2598 28.97C29.1198 28.97 29.9098 28.58 30.3698 27.93C30.5698 27.65 30.6898 27.34 30.7398 27.01C30.7598 26.87 30.7598 26.74 30.7598 26.6C30.7098 25.46 29.7798 24.5 28.5398 24.31C28.3898 24.29 28.2598 24.28 28.1098 24.28C27.5398 24.28 26.9998 24.45 26.5598 24.77C26.3598 24.76 26.1698 24.75 25.9698 24.75C23.7898 24.75 21.5398 25.4 20.1198 26.45C14.7498 30.39 14.9598 42.57 21.9098 51.28C26.9398 57.58 28.6398 59.01 39.0698 61.92C38.8698 66.22 44.3798 71.06 46.9898 72.43C53.1498 75.66 55.5498 76.03 60.7798 76.37C64.3398 76.6 67.0098 75.13 68.2898 72.88C69.1098 71.42 69.3598 69.11 68.8898 67.26" fill="white"/>
		<path d="M273.54 25.46C276.88 23.33 280.83 22.27 285.38 22.27C289.93 22.27 293.77 23.29 297.26 25.33C300.75 27.37 303.48 30.27 305.46 34.02C307.44 37.77 308.43 42.13 308.43 47.1C308.43 52.07 307.44 56.44 305.46 60.22C303.48 64 300.73 66.93 297.21 69C293.69 71.07 289.75 72.1 285.37 72.1C280.76 72.1 276.78 71.05 273.44 68.95C270.1 66.85 267.66 64.12 266.12 60.75V71.39H260V5.78003H266.12V33.71C267.72 30.34 270.18 27.59 273.53 25.46M299.78 36.68C298.21 33.75 296.07 31.52 293.35 29.99C290.63 28.45 287.56 27.68 284.13 27.68C280.7 27.68 277.79 28.48 275.04 30.07C272.29 31.67 270.12 33.94 268.52 36.9C266.92 39.86 266.13 43.28 266.13 47.19C266.13 51.1 266.93 54.52 268.52 57.48C270.12 60.44 272.29 62.71 275.04 64.31C277.79 65.91 280.82 66.7 284.13 66.7C287.44 66.7 290.63 65.92 293.35 64.35C296.07 62.78 298.21 60.51 299.78 57.52C301.35 54.53 302.13 51.06 302.13 47.1C302.13 43.14 301.35 39.61 299.78 36.68Z" fill="#1273E2"/>
		<path d="M325.23 69.05C321.59 67.01 318.73 64.11 316.63 60.36C314.53 56.61 313.48 52.22 313.48 47.19C313.48 42.16 314.54 37.78 316.67 34.02C318.8 30.27 321.69 27.37 325.36 25.33C329.02 23.29 333.13 22.27 337.69 22.27C342.25 22.27 346.36 23.29 350.06 25.33C353.75 27.37 356.65 30.27 358.75 34.02C360.85 37.77 361.9 42.16 361.9 47.19C361.9 52.22 360.84 56.53 358.71 60.31C356.58 64.09 353.65 67 349.93 69.04C346.21 71.08 342.07 72.1 337.52 72.1C332.97 72.1 328.87 71.08 325.24 69.04M346.38 64.52C349.1 63.07 351.3 60.88 352.99 57.96C354.67 55.03 355.52 51.44 355.52 47.19C355.52 42.94 354.69 39.34 353.04 36.42C351.38 33.49 349.2 31.31 346.48 29.86C343.76 28.41 340.8 27.69 337.61 27.69C334.42 27.69 331.46 28.42 328.74 29.86C326.02 31.31 323.85 33.5 322.22 36.42C320.59 39.35 319.78 42.94 319.78 47.19C319.78 51.44 320.59 55.04 322.22 57.96C323.84 60.89 326 63.07 328.69 64.52C331.38 65.97 334.32 66.69 337.51 66.69C340.7 66.69 343.66 65.97 346.38 64.52Z" fill="#1273E2"/>
		<path d="M406.59 28.1701C410.25 31.7501 412.09 36.9301 412.09 43.7301V72.1001H405.97V44.4301C405.97 39.1701 404.65 35.1501 402.02 32.3701C399.39 29.5901 395.8 28.2001 391.24 28.2001C386.68 28.2001 382.85 29.6801 380.07 32.6301C377.29 35.5901 375.9 39.9301 375.9 45.6601V72.0801H369.69V23.6901H375.9V31.9401C377.44 28.9801 379.65 26.7201 382.55 25.1601C385.45 23.5901 388.73 22.8101 392.39 22.8101C398.18 22.8101 402.91 24.6001 406.58 28.1801" fill="#1273E2"/>
		<path d="M428.85 82.7501C428.85 86.6501 427.87 89.5301 425.92 91.4001C423.97 93.2601 421.04 94.1901 417.14 94.1901H412.8V88.8701H416.17C418.48 88.8701 420.13 88.3801 421.13 87.4101C422.13 86.4401 422.64 84.7901 422.64 82.4901V22.8901H428.85V82.7401V82.7501ZM422.64 12.4301C421.75 11.5401 421.31 10.4501 421.31 9.15012C421.31 7.85012 421.75 6.77012 422.64 5.91012C423.53 5.05012 424.59 4.62012 425.83 4.62012C427.07 4.62012 428.12 5.05012 428.98 5.91012C429.84 6.77012 430.27 7.85012 430.27 9.15012C430.27 10.4501 429.84 11.5401 428.98 12.4301C428.12 13.3201 427.07 13.7601 425.83 13.7601C424.59 13.7601 423.52 13.3201 422.64 12.4301Z" fill="#1273E2"/>
		<path d="M448.4 68.8601C444.76 66.8201 441.9 63.9201 439.8 60.1701C437.7 56.4201 436.65 52.0301 436.65 47.0001C436.65 41.9701 437.71 37.5901 439.84 33.8301C441.97 30.0801 444.86 27.1801 448.53 25.1401C452.19 23.1001 456.3 22.0801 460.86 22.0801C465.42 22.0801 469.53 23.1001 473.23 25.1401C476.92 27.1801 479.82 30.0801 481.92 33.8301C484.02 37.5801 485.07 41.9701 485.07 47.0001C485.07 52.0301 484.01 56.3401 481.88 60.1201C479.75 63.9001 476.82 66.8101 473.1 68.8501C469.38 70.8901 465.24 71.9101 460.69 71.9101C456.14 71.9101 452.04 70.8901 448.41 68.8501M469.55 64.3401C472.27 62.8901 474.47 60.7001 476.16 57.7801C477.84 54.8501 478.69 51.2601 478.69 47.0101C478.69 42.7601 477.86 39.1601 476.21 36.2401C474.56 33.3101 472.37 31.1301 469.65 29.6801C466.93 28.2301 463.97 27.5101 460.78 27.5101C457.59 27.5101 454.63 28.2401 451.91 29.6801C449.19 31.1301 447.02 33.3201 445.39 36.2401C443.76 39.1701 442.95 42.7601 442.95 47.0101C442.95 51.2601 443.76 54.8601 445.39 57.7801C447.01 60.7101 449.17 62.8901 451.86 64.3401C454.55 65.7901 457.49 66.5101 460.68 66.5101C463.87 66.5101 466.83 65.7901 469.55 64.3401Z" fill="#1273E2"/>
		<path d="M534.82 23.52V71.94H528.61V63.43C527.19 66.44 525 68.75 522.05 70.35C519.09 71.95 515.78 72.74 512.12 72.74C506.33 72.74 501.6 70.95 497.93 67.38C494.26 63.8 492.43 58.62 492.43 51.82V23.53H498.55V51.11C498.55 56.37 499.87 60.39 502.5 63.17C505.13 65.95 508.72 67.34 513.27 67.34C517.82 67.34 521.66 65.86 524.44 62.91C527.22 59.95 528.61 55.61 528.61 49.88V23.54H534.82V23.52Z" fill="#1273E2"/>
		<path d="M557.91 25.1001C560.72 23.4501 564.16 22.6201 568.24 22.6201V29.0901H566.55C562.06 29.0901 558.45 30.3001 555.73 32.7201C553.01 35.1401 551.65 39.1901 551.65 44.8701V71.9201H545.44V23.5101H551.65V32.1101C553.01 29.1001 555.09 26.7601 557.9 25.1001" fill="#1273E2"/>
		<path d="M581.01 69.7499C577.82 68.2999 575.29 66.3399 573.43 63.8499C571.57 61.3699 570.55 58.6199 570.37 55.5999H582.87C583.11 57.4899 584.04 59.0599 585.66 60.2999C587.29 61.5399 589.31 62.1599 591.74 62.1599C594.17 62.1599 595.95 61.6899 597.28 60.7399C598.61 59.7899 599.28 58.5799 599.28 57.0999C599.28 55.4999 598.47 54.3099 596.84 53.5099C595.21 52.7099 592.63 51.8399 589.08 50.8899C585.42 49.9999 582.41 49.0899 580.08 48.1399C577.74 47.1999 575.74 45.7499 574.05 43.7999C572.36 41.8499 571.52 39.2199 571.52 35.9099C571.52 33.1899 572.3 30.7099 573.87 28.4599C575.44 26.2099 577.68 24.4399 580.61 23.1399C583.54 21.8399 586.98 21.1899 590.94 21.1899C596.79 21.1899 601.46 22.6499 604.95 25.5799C608.44 28.5099 610.36 32.4499 610.71 37.4199H598.83C598.65 35.4699 597.84 33.9199 596.39 32.7699C594.94 31.6199 593.01 31.0399 590.58 31.0399C588.33 31.0399 586.6 31.4499 585.39 32.2799C584.18 33.1099 583.57 34.2599 583.57 35.7399C583.57 37.3999 584.4 38.6499 586.05 39.5099C587.7 40.3699 590.28 41.2399 593.76 42.1299C597.31 43.0199 600.23 43.9299 602.54 44.8799C604.85 45.8299 606.84 47.2899 608.53 49.2699C610.21 51.2499 611.09 53.8699 611.15 57.1199C611.15 59.9599 610.37 62.4999 608.8 64.7499C607.23 66.9999 604.99 68.7499 602.06 70.0299C599.13 71.2999 595.72 71.9399 591.82 71.9399C587.92 71.9399 584.19 71.2199 581 69.7699" fill="#1273E2"/>
		<path d="M617.59 33.97C619.57 30.13 622.26 27.17 625.66 25.1C629.06 23.03 632.86 22 637.06 22C640.73 22 643.93 22.74 646.68 24.22C649.43 25.7 651.63 27.56 653.29 29.81V22.8H665.79V71.93H653.29V64.75C651.69 67.06 649.49 68.96 646.68 70.47C643.87 71.98 640.64 72.73 636.97 72.73C632.83 72.73 629.06 71.67 625.66 69.54C622.26 67.41 619.57 64.41 617.59 60.54C615.61 56.67 614.62 52.22 614.62 47.19C614.62 42.16 615.61 37.82 617.59 33.98M651.5 39.6C650.32 37.44 648.72 35.79 646.71 34.63C644.7 33.48 642.54 32.9 640.24 32.9C637.94 32.9 635.81 33.46 633.86 34.59C631.91 35.71 630.33 37.35 629.12 39.51C627.91 41.67 627.3 44.23 627.3 47.18C627.3 50.13 627.91 52.72 629.12 54.94C630.33 57.16 631.93 58.86 633.91 60.04C635.89 61.22 638 61.81 640.25 61.81C642.5 61.81 644.71 61.23 646.72 60.08C648.73 58.93 650.33 57.27 651.51 55.11C652.69 52.95 653.28 50.37 653.28 47.35C653.28 44.33 652.69 41.75 651.51 39.59" fill="#1273E2"/>
		<path d="M715.79 27.6301C719.39 31.3301 721.2 36.4801 721.2 43.1001V71.9201H708.79V44.7901C708.79 40.8901 707.81 37.8901 705.86 35.7901C703.91 33.6901 701.25 32.6401 697.88 32.6401C694.51 32.6401 691.75 33.6901 689.77 35.7901C687.79 37.8901 686.8 40.8901 686.8 44.7901V71.9201H674.38V22.8001H686.8V28.9201C688.45 26.7901 690.57 25.1201 693.14 23.9101C695.71 22.7001 698.53 22.0901 701.61 22.0901C707.46 22.0901 712.19 23.9401 715.8 27.6301" fill="#1273E2"/>
		<path d="M743.9 32.9899V56.7599C743.9 58.4099 744.3 59.6099 745.1 60.3499C745.9 61.0899 747.24 61.4599 749.14 61.4599H754.9V71.9199H747.1C736.64 71.9199 731.4 66.8399 731.4 56.6699V32.9899H725.55V22.7899H731.4V10.6399H743.9V22.7899H754.9V32.9899H743.9Z" fill="#1273E2"/>
		<path d="M805.62 50.29H769.71C770 53.84 771.25 56.62 773.43 58.62C775.62 60.63 778.31 61.64 781.5 61.64C786.11 61.64 789.39 59.66 791.34 55.7H804.73C803.31 60.43 800.59 64.32 796.57 67.36C792.55 70.41 787.61 71.93 781.76 71.93C777.03 71.93 772.79 70.88 769.04 68.78C765.28 66.68 762.36 63.71 760.26 59.87C758.16 56.03 757.11 51.59 757.11 46.57C757.11 41.55 758.14 37.02 760.21 33.18C762.28 29.34 765.18 26.38 768.9 24.31C772.62 22.24 776.91 21.21 781.76 21.21C786.61 21.21 790.61 22.22 794.31 24.22C798 26.23 800.87 29.08 802.91 32.78C804.95 36.47 805.97 40.72 805.97 45.5C805.97 47.27 805.85 48.87 805.62 50.29ZM793.11 41.95C793.05 38.76 791.9 36.2 789.65 34.28C787.4 32.36 784.65 31.4 781.4 31.4C778.33 31.4 775.74 32.33 773.64 34.19C771.54 36.05 770.26 38.64 769.78 41.95H793.1H793.11ZM791.16 10.06L769.94 17.31L770.82 8.49001L792.16 0.0100098L791.16 10.07V10.06Z" fill="#1273E2"/>
		<path d="M807.08 16.5898V4.53979H809.2L813.59 11.6898L812.35 11.6698L816.79 4.53979H818.8V16.5898H816.58V12.0598C816.58 11.0298 816.61 10.0998 816.66 9.2698C816.71 8.4398 816.8 7.61979 816.93 6.80979L817.21 7.5498L813.47 13.3198H812.33L808.71 7.59979L808.95 6.80979C809.08 7.57979 809.17 8.3698 809.22 9.1798C809.27 9.9898 809.3 10.9498 809.3 12.0598V16.5898H807.08Z" fill="#1273E2"/>
		<path d="M827.16 16.7599C826.29 16.7599 825.49 16.6099 824.77 16.3099C824.05 16.0099 823.42 15.5799 822.89 15.0299C822.36 14.4699 821.95 13.8099 821.66 13.0499C821.37 12.2899 821.22 11.4499 821.22 10.5399C821.22 9.62988 821.38 8.85988 821.69 8.10988C822 7.35988 822.43 6.70988 822.98 6.14988C823.53 5.58988 824.17 5.14988 824.91 4.83988C825.64 4.52988 826.44 4.37988 827.3 4.37988C827.88 4.37988 828.45 4.46988 829 4.63988C829.55 4.80988 830.06 5.04988 830.52 5.34988C830.98 5.64988 831.36 6.00988 831.67 6.40988L830.24 7.97988C829.94 7.66988 829.63 7.40988 829.32 7.19988C829 6.98988 828.68 6.82988 828.34 6.71988C828 6.60988 827.65 6.55988 827.3 6.55988C826.77 6.55988 826.28 6.65988 825.81 6.84988C825.34 7.04988 824.94 7.31988 824.6 7.67988C824.26 8.03988 823.99 8.45988 823.8 8.94988C823.6 9.43988 823.51 9.97988 823.51 10.5799C823.51 11.1799 823.6 11.7399 823.79 12.2299C823.98 12.7199 824.25 13.1499 824.6 13.4999C824.95 13.8599 825.37 14.1299 825.86 14.3199C826.35 14.5099 826.88 14.5999 827.47 14.5999C827.85 14.5999 828.22 14.5499 828.57 14.4499C828.92 14.3499 829.26 14.1999 829.56 14.0099C829.86 13.8199 830.14 13.5999 830.4 13.3499L831.5 15.1199C831.22 15.4299 830.86 15.7099 830.4 15.9599C829.94 16.2099 829.43 16.4099 828.86 16.5499C828.29 16.6899 827.73 16.7699 827.16 16.7699V16.7599Z" fill="#1273E2"/>
	</g>
	<defs>
		<clipPath id="clip0_9683_2052">
			<rect width="831.67" height="94.18" fill="white"/>
		</clipPath>
	</defs>
</svg>
